<svg xmlns="http://www.w3.org/2000/svg" width="596" height="596" viewBox="405.8 89.5 596 596" version="1.1"><defs>
<linearGradient id="amberToRed" x1="0" y1="1" x2="1" y2="0">
<stop offset="0%" stop-color="#FF0000"/>
<stop offset="50%" stop-color="#FCA202"/>
<stop offset="100%" stop-color="#FF0000"/>
</linearGradient>
</defs>
<rect x="405.8" y="89.5" width="596" height="596" fill="#1B1B1B"/>

	<path d="M 703.750 164.792 L 696 165.084 696 230.376 L 696 295.668 684.750 306.862 L 673.500 318.057 663.677 307.902 L 653.853 297.747 657.177 294.128 C 659.004 292.137, 663.763 287.071, 667.750 282.869 L 675 275.230 675 220.115 L 675 165 667 165 L 659 165 659 189.181 L 659 213.363 642.790 229.681 L 626.579 246 583.790 246 L 541 246 541 253.065 L 541 260.131 562.250 259.995 C 573.938 259.920, 583.946 259.890, 584.492 259.929 C 585.037 259.968, 575.366 270.125, 563 282.500 L 540.517 305 516.758 305 L 493 305 493 311.500 L 493 318 519.729 318 L 546.458 318 554.729 309.772 L 563 301.544 563 312.152 L 563 322.760 540 345 L 517 367.240 517 400.620 L 517 434 523.500 434 L 530 434 530 403.739 L 530 373.477 546.500 357 L 563 340.523 563.125 356.261 C 563.194 364.918, 563.306 372.563, 563.375 373.250 L 563.500 374.500 569.250 374.800 L 575 375.100 575.008 332.300 L 575.016 289.500 589.692 274.750 L 604.368 260 617.921 260 L 631.474 260 645.237 246.263 L 659 232.527 659 249.894 L 659 267.262 645.250 281.730 C 637.688 289.687, 626.663 301.389, 620.750 307.733 L 610 319.267 610 359.058 L 610 398.850 590.250 399.175 L 570.500 399.500 567.904 401.264 C 566.476 402.234, 564.825 404.090, 564.233 405.387 L 563.158 407.746 562.992 473.123 C 562.900 509.080, 562.864 554.813, 562.912 574.750 L 563 611 592.500 611 L 622 611 622 599.523 L 622 588.045 603.750 587.773 L 585.500 587.500 585.500 505 L 585.500 422.500 605.750 422.229 L 626 421.959 626 374.416 L 626 326.873 633.750 318.687 C 638.013 314.184, 641.890 310.333, 642.366 310.128 C 642.842 309.924, 643.622 310.374, 644.100 311.128 C 644.578 311.883, 644.976 326.563, 644.985 343.750 L 645 375 650.500 375 L 656 375 656.052 349.250 L 656.104 323.500 670.817 338.746 L 685.530 353.991 691.259 348.263 L 696.987 342.534 689.997 335.496 L 683.006 328.459 693.498 318.002 L 703.991 307.545 710.988 314.488 L 717.985 321.431 722.492 317.007 C 724.972 314.574, 727 312.104, 727 311.517 C 727 310.930, 723.628 307.101, 719.507 303.007 L 712.014 295.564 711.757 230.032 L 711.500 164.500 703.750 164.792 M 733 219.870 L 733 274.740 743.500 286.047 C 749.275 292.266, 754 297.615, 754 297.933 C 754 298.252, 740.275 312.232, 723.500 329 L 693 359.488 693 389.276 L 693 419.064 694.381 422.282 C 696.063 426.204, 701.497 431.499, 705.315 432.939 L 708.130 434 735.565 434 L 763 434 763 510.961 L 763 587.923 736.250 587.599 C 721.538 587.421, 708.263 587.495, 706.750 587.763 L 704 588.250 704 599.625 L 704 611 769.750 610.996 L 835.500 610.993 838.696 609.044 C 840.453 607.972, 842.703 605.856, 843.696 604.341 L 845.500 601.587 845.500 511.543 L 845.500 421.500 843.701 418.206 C 842.712 416.394, 840.462 414.033, 838.701 412.960 L 835.500 411.007 777.705 411.004 L 719.909 411 717.455 408.545 L 715 406.091 715.040 384.295 L 715.081 362.500 732.647 344 C 742.308 333.825, 750.615 325.350, 751.106 325.167 C 751.616 324.976, 752 335.598, 752 349.917 L 752 375 757.500 375 L 763 375 763 343.622 L 763 312.245 764.550 310.958 L 766.100 309.672 767.393 311.086 C 768.104 311.864, 771.681 315.745, 775.343 319.710 L 782 326.921 782 356.960 L 782 387 790 387 L 798 387 798 353.120 L 798 319.239 773.541 293.370 L 749.081 267.500 749.041 250.013 L 749 232.527 762.763 246.263 L 776.526 260 790.332 260 L 804.137 260 818.531 274.750 L 832.925 289.500 832.963 332.250 L 833 375 839 375 L 845 375 845 357.761 L 845 340.523 861.500 357 L 878 373.477 878 403.739 L 878 434 884.500 434 L 891 434 891 400.807 L 891 367.614 868 345.221 L 845 322.829 845 312.186 L 845 301.544 853.271 309.772 L 861.542 318 888.271 318 L 915 318 915 311.500 L 915 305 891.183 305 L 867.367 305 845.433 282.750 L 823.500 260.500 845.250 260.230 L 867 259.961 867 252.980 L 867 246 824.092 246 L 781.184 246 765.092 229.349 L 749 212.698 749 188.849 L 749 165 741 165 L 733 165 733 219.870 M 638.729 441.770 C 633.928 446.593, 630 450.978, 630 451.513 C 630 452.049, 642.259 464.752, 657.243 479.743 L 684.486 507 657 534.500 L 629.513 562 639.012 571.500 L 648.511 580.999 685.501 543.999 L 722.490 507 685.500 470 C 665.156 449.650, 648.273 433, 647.984 433 C 647.695 433, 643.530 436.946, 638.729 441.770" stroke="none" fill="url(#amberToRed)" fill-rule="evenodd"/>
</svg>